<svg xmlns="http://www.w3.org/2000/svg" xmlns:xlink="http://www.w3.org/1999/xlink" viewBox="0 0 750 518.28"><defs><style>.cls-1,.cls-2{fill:#6b2aa5;}.cls-1{opacity:0.45;}.cls-2{opacity:0.42;}.cls-3{opacity:0.73;fill:url(#linear-gradient);}.cls-4{opacity:0.68;fill:url(#linear-gradient-2);}</style><linearGradient id="linear-gradient" x1="1432.53" y1="3021.96" x2="2250.1" y2="3021.96" gradientTransform="translate(2172 3310.85) rotate(180)" gradientUnits="userSpaceOnUse"><stop offset="0" stop-color="#3a2fb2"/><stop offset="0.29" stop-color="#432eb0"/><stop offset="0.75" stop-color="#5b2ca9"/><stop offset="1" stop-color="#6b2aa5"/></linearGradient><linearGradient id="linear-gradient-2" x1="1432.53" y1="3028.57" x2="2250.1" y2="3028.57" xlink:href="#linear-gradient"/></defs><title>bottom-wave</title><g id="Layer_2" data-name="Layer 2"><g id="Layer_1-2" data-name="Layer 1"><path class="cls-1" d="M750,57.1c-66.16-6.47-159.31-5.34-255.54,36.6-46.21,20.14-46.88,29.53-87.71,42.46C302,169.33,201.33,140.87,122.48,118.59A829.43,829.43,0,0,1,0,73.2V518.28H750Z"/><path class="cls-2" d="M750,143.48c-14.61-1.41-36.19-3.95-62-8.79-67.38-12.63-95.33-28.13-136.08-39.53-77.63-21.7-145.7-12.86-199.6-5.85-90.31,11.74-97.58,33.16-148.19,32.21C156.07,120.61,85.62,99.84,0,0V518.28H750Z"/><path class="cls-3" d="M750,128.41c-120.67,13.56-214.41,6.34-278.18-3-31.05-4.54-71.93-12.45-153.68-28.27-11.71-2.27-84-21-170.6-34.23-19.45-3-41.6-6-69.16,0C41.28,71,15,90.89,0,104.6V518.28H750Z"/><path class="cls-4" d="M750,149.93c-126.2-4.5-222.46-27.6-291.93-51.12-16.32-5.53-23.24-8.4-38.82-13.53C358.82,65.35,258.27,34.8,141.3,50.7,107.59,55.28,57.64,65.78,0,92.8V518.28H750Z"/></g></g></svg>