<svg xmlns="http://www.w3.org/2000/svg" xmlns:xlink="http://www.w3.org/1999/xlink" viewBox="0 0 1365.32 345.96"><defs><style>.cls-1,.cls-2{fill:#6b2aa5;}.cls-1{opacity:0.45;}.cls-2{opacity:0.42;}.cls-3{opacity:0.73;fill:url(#linear-gradient);}.cls-4{opacity:0.68;fill:url(#linear-gradient-2);}</style><linearGradient id="linear-gradient" x1="19.17" y1="118.84" x2="1507.5" y2="118.84" gradientTransform="translate(1365.32 345.96) rotate(180)" gradientUnits="userSpaceOnUse"><stop offset="0" stop-color="#3a2fb2"/><stop offset="0.29" stop-color="#432eb0"/><stop offset="0.75" stop-color="#5b2ca9"/><stop offset="1" stop-color="#6b2aa5"/></linearGradient><linearGradient id="linear-gradient-2" x1="19.17" y1="130.86" x2="1507.5" y2="130.86" xlink:href="#linear-gradient"/></defs><title>desktop-bottom-wave</title><g id="Layer_2" data-name="Layer 2"><g id="Layer_1-2" data-name="Layer 1"><path class="cls-1" d="M1365.32,346v-242c-120.45-11.77-290-9.72-465.2,66.64-84.12,36.65-85.33,53.74-159.65,77.29-190.62,60.38-374,8.58-517.5-32A1509.21,1509.21,0,0,1,0,133.26V346Z"/><path class="cls-2" d="M1365.32,346V261.19c-26.59-2.56-65.88-7.18-112.86-16-122.66-23-173.54-51.21-247.74-72-141.31-39.52-265.23-23.41-363.35-10.66C477,184,463.74,223,371.61,221.22,284.12,219.57,155.86,181.75,0,0V346Z"/><path class="cls-3" d="M1365.32,346V233.76c-219.67,24.69-390.31,11.54-506.4-5.42-56.53-8.26-130.95-22.67-279.78-51.47-21.31-4.13-152.9-38.26-310.55-62.31-35.42-5.4-75.73-10.9-125.9,0C75.15,129.23,27.29,165.46,0,190.41V346Z"/><path class="cls-4" d="M1365.32,346v-73c-229.74-8.19-405-50.24-531.43-93.06-29.72-10.06-42.32-15.29-70.67-24.63-110-36.28-293.07-91.89-506-62.95C195.87,100.64,104.94,119.75,0,168.93V346Z"/></g></g></svg>