<svg xmlns="http://www.w3.org/2000/svg" xmlns:xlink="http://www.w3.org/1999/xlink" viewBox="0 0 1365.32 345.96"><defs><style>.cls-1,.cls-2{fill:#6b2aa5;}.cls-1{opacity:0.45;}.cls-2{opacity:0.42;}.cls-3{opacity:0.73;fill:url(#linear-gradient);}.cls-4{opacity:0.68;fill:url(#linear-gradient-2);}</style><linearGradient id="linear-gradient" x1="19.17" y1="118.84" x2="1507.5" y2="118.84" gradientUnits="userSpaceOnUse"><stop offset="0" stop-color="#3a2fb2"/><stop offset="0.29" stop-color="#432eb0"/><stop offset="0.75" stop-color="#5b2ca9"/><stop offset="1" stop-color="#6b2aa5"/></linearGradient><linearGradient id="linear-gradient-2" x1="19.17" y1="130.86" x2="1507.5" y2="130.86" xlink:href="#linear-gradient"/></defs><title>desktop-wave</title><g id="Layer_2" data-name="Layer 2"><g id="Layer_1-2" data-name="Layer 1"><path class="cls-1" d="M0,0V242c120.45,11.78,290,9.72,465.2-66.63,84.12-36.66,85.33-53.74,159.66-77.29,190.61-60.38,373.95-8.58,517.5,32a1509.85,1509.85,0,0,1,223,82.63V0Z"/><path class="cls-2" d="M0,0V84.77c26.59,2.56,65.89,7.18,112.86,16,122.67,23,173.55,51.21,247.74,72C501.91,212.24,625.83,196.13,724,183.38,888.35,162,901.59,123,993.71,124.74c87.5,1.65,215.75,39.47,371.61,221.22V0Z"/><path class="cls-3" d="M0,0V112.2c219.68-24.69,390.31-11.54,506.4,5.42,56.53,8.26,131,22.67,279.78,51.47,21.32,4.13,152.9,38.26,310.55,62.31,35.42,5.4,75.74,10.89,125.91,0,67.53-14.67,115.39-50.9,142.68-75.85V0Z"/><path class="cls-4" d="M0,0V73c229.74,8.19,405,50.24,531.43,93.06,29.72,10.06,42.32,15.29,70.67,24.63,110,36.28,293.07,91.89,506,62.95,61.37-8.34,152.3-27.46,257.23-76.63V0Z"/></g></g></svg>