<svg xmlns="http://www.w3.org/2000/svg" xmlns:xlink="http://www.w3.org/1999/xlink" viewBox="0 0 639.61 393.81"><defs><style>.cls-1,.cls-2{fill:#6b2aa5;}.cls-1{opacity:0.45;}.cls-2{opacity:0.42;}.cls-3{opacity:0.73;fill:url(#linear-gradient);}.cls-4{opacity:0.68;fill:url(#linear-gradient-2);}</style><linearGradient id="linear-gradient" x1="204.98" y1="1217.73" x2="902.22" y2="1217.73" gradientTransform="translate(-196 -1046.19)" gradientUnits="userSpaceOnUse"><stop offset="0" stop-color="#3a2fb2"/><stop offset="0.29" stop-color="#432eb0"/><stop offset="0.75" stop-color="#5b2ca9"/><stop offset="1" stop-color="#6b2aa5"/></linearGradient><linearGradient id="linear-gradient-2" x1="204.98" y1="1223.36" x2="902.22" y2="1223.36" xlink:href="#linear-gradient"/></defs><title>iphone5-wave</title><g id="Layer_2" data-name="Layer 2"><g id="Layer_1-2" data-name="Layer 1"><path class="cls-1" d="M0,0V345.11c56.43,5.52,135.86,4.56,217.93-31.21,39.41-17.17,40-25.18,74.8-36.21,89.3-28.29,175.18-4,242.43,15a708.22,708.22,0,0,1,104.45,38.71V0Z"/><path class="cls-2" d="M0,0V271.45c12.46,1.2,30.87,3.36,52.87,7.49,57.47,10.77,81.3,24,116.06,33.71,66.2,18.51,124.25,11,170.22,5,77-10,83.22-28.29,126.37-27.47,41,.77,101.08,18.49,174.09,103.63V0Z"/><path class="cls-3" d="M0,0V284.3c102.91-11.57,182.85-5.41,237.23,2.54,26.49,3.87,61.35,10.62,131.07,24.11,10,1.93,71.63,17.93,145.49,29.19,16.59,2.53,35.48,5.11,59,0,31.64-6.87,54.06-23.84,66.84-35.53V0Z"/><path class="cls-4" d="M0,0V266c107.63,3.83,189.72,23.53,249,43.59,13.92,4.72,19.83,7.16,33.11,11.54,51.53,17,137.29,43.05,237,29.49a414.52,414.52,0,0,0,120.5-35.9V0Z"/></g></g></svg>