<svg xmlns="http://www.w3.org/2000/svg" xmlns:xlink="http://www.w3.org/1999/xlink" viewBox="0 0 1125 730.52"><defs><style>.cls-1,.cls-2{fill:#6b2aa5;}.cls-1{opacity:0.45;}.cls-2{opacity:0.42;}.cls-3{opacity:0.73;fill:url(#linear-gradient);}.cls-4{opacity:0.68;fill:url(#linear-gradient-2);}</style><linearGradient id="linear-gradient" x1="15.8" y1="320.65" x2="1242.15" y2="320.65" gradientTransform="translate(1125 730.52) rotate(180)" gradientUnits="userSpaceOnUse"><stop offset="0" stop-color="#3a2fb2"/><stop offset="0.29" stop-color="#432eb0"/><stop offset="0.75" stop-color="#5b2ca9"/><stop offset="1" stop-color="#6b2aa5"/></linearGradient><linearGradient id="linear-gradient-2" x1="15.8" y1="330.55" x2="1242.15" y2="330.55" xlink:href="#linear-gradient"/></defs><title>iphonex-bottom-wave</title><g id="Layer_2" data-name="Layer 2"><g id="Layer_1-2" data-name="Layer 1"><path class="cls-1" d="M1125,730.52V85.65c-99.25-9.71-239-8-383.32,54.9-69.31,30.21-70.31,44.29-131.55,63.69C453.06,254,302,211.31,183.72,177.89A1244.75,1244.75,0,0,1,0,109.81V730.52Z"/><path class="cls-2" d="M1125,730.52V215.22c-21.91-2.11-54.29-5.92-93-13.18-101.08-18.94-143-42.2-204.14-59.29C711.43,110.18,609.33,123.46,528.48,134,393,151.57,382.11,183.71,306.2,182.28,234.11,180.92,128.43,149.76,0,0V730.52Z"/><path class="cls-3" d="M1125,730.52V192.61c-181,20.35-321.61,9.51-417.26-4.46-46.59-6.81-107.9-18.68-230.54-42.41-17.56-3.4-126-31.53-255.89-51.34-29.18-4.45-62.4-9-103.74,0C61.92,106.48,22.49,136.34,0,156.9V730.52Z"/><path class="cls-4" d="M1125,730.52V224.89c-189.3-6.74-333.69-41.39-437.89-76.67-24.49-8.3-34.87-12.6-58.23-20.3C538.23,98,387.4,52.21,212,76.05,161.39,82.92,86.47,98.68,0,139.2V730.52Z"/></g></g></svg>