<svg xmlns="http://www.w3.org/2000/svg" xmlns:xlink="http://www.w3.org/1999/xlink" viewBox="0 0 639.61 393.81"><defs><style>.cls-1,.cls-2{fill:#6b2aa5;}.cls-1{opacity:0.45;}.cls-2{opacity:0.42;}.cls-3{opacity:0.73;fill:url(#linear-gradient);}.cls-4{opacity:0.68;fill:url(#linear-gradient-2);}</style><linearGradient id="linear-gradient" x1="104.98" y1="333.73" x2="802.22" y2="333.73" gradientTransform="translate(735.61 556) rotate(180)" gradientUnits="userSpaceOnUse"><stop offset="0" stop-color="#3a2fb2"/><stop offset="0.29" stop-color="#432eb0"/><stop offset="0.75" stop-color="#5b2ca9"/><stop offset="1" stop-color="#6b2aa5"/></linearGradient><linearGradient id="linear-gradient-2" x1="104.98" y1="339.36" x2="802.22" y2="339.36" xlink:href="#linear-gradient"/></defs><title>iphone5-bottom-wave</title><g id="Layer_2" data-name="Layer 2"><g id="Layer_1-2" data-name="Layer 1"><path class="cls-1" d="M639.61,393.81V48.69c-56.42-5.51-135.86-4.55-217.93,31.22-39.41,17.17-40,25.18-74.79,36.21-89.3,28.29-175.19,4-242.44-15A708.22,708.22,0,0,1,0,62.43V393.81Z"/><path class="cls-2" d="M639.61,393.81V122.36c-12.45-1.2-30.86-3.37-52.87-7.49-57.46-10.77-81.3-24-116.06-33.71-66.2-18.52-124.25-11-170.22-5-77,10-83.21,28.29-126.37,27.47C133.1,102.86,73,85.14,0,0V393.81Z"/><path class="cls-3" d="M639.61,393.81V109.51C536.7,121.07,456.76,114.92,402.38,107,375.9,103.1,341,96.35,271.31,82.86c-10-1.94-71.63-17.93-145.48-29.19-16.59-2.53-35.48-5.11-59,0C35.2,60.54,12.78,77.51,0,89.2V393.81Z"/><path class="cls-4" d="M639.61,393.81V127.86C532,124,449.9,104.33,390.65,84.27c-13.92-4.72-19.82-7.16-33.1-11.54-51.54-17-137.3-43.05-237-29.49A414.16,414.16,0,0,0,0,79.14V393.81Z"/></g></g></svg>