<svg xmlns="http://www.w3.org/2000/svg" xmlns:xlink="http://www.w3.org/1999/xlink" viewBox="0 0 1125 730.52"><defs><style>.cls-1,.cls-2{fill:#6b2aa5;}.cls-1{opacity:0.45;}.cls-2{opacity:0.42;}.cls-3{opacity:0.73;fill:url(#linear-gradient);}.cls-4{opacity:0.68;fill:url(#linear-gradient-2);}</style><linearGradient id="linear-gradient" x1="15.8" y1="320.65" x2="1242.15" y2="320.65" gradientUnits="userSpaceOnUse"><stop offset="0" stop-color="#3a2fb2"/><stop offset="0.29" stop-color="#432eb0"/><stop offset="0.75" stop-color="#5b2ca9"/><stop offset="1" stop-color="#6b2aa5"/></linearGradient><linearGradient id="linear-gradient-2" x1="15.8" y1="330.55" x2="1242.15" y2="330.55" xlink:href="#linear-gradient"/></defs><title>iphonex-wave</title><g id="Layer_2" data-name="Layer 2"><g id="Layer_1-2" data-name="Layer 1"><path class="cls-1" d="M0,0V644.87c99.25,9.7,239,8,383.32-54.9,69.31-30.21,70.31-44.29,131.55-63.69,157.07-49.76,308.13-7.07,426.41,26.35A1243.6,1243.6,0,0,1,1125,620.71V0Z"/><path class="cls-2" d="M0,0V515.3c21.91,2.11,54.29,5.92,93,13.17,101.08,18.95,143,42.2,204.14,59.3,116.44,32.56,218.54,19.29,299.39,8.78C732,579,742.89,546.81,818.8,548.24c72.09,1.36,177.77,32.52,306.2,182.28V0Z"/><path class="cls-3" d="M0,0V537.91c181-20.35,321.61-9.52,417.26,4.46,46.59,6.81,107.9,18.68,230.54,42.41,17.56,3.4,126,31.53,255.89,51.34,29.18,4.45,62.4,9,103.74,0,55.65-12.09,95.08-41.94,117.57-62.5V0Z"/><path class="cls-4" d="M0,0V505.62c189.3,6.75,333.69,41.4,437.89,76.68,24.49,8.29,34.87,12.6,58.23,20.3C586.77,632.49,737.6,678.31,913,654.47c50.57-6.88,125.49-22.63,212-63.15V0Z"/></g></g></svg>