<svg xmlns="http://www.w3.org/2000/svg" xmlns:xlink="http://www.w3.org/1999/xlink" viewBox="0 0 750 383.62"><defs><style>.cls-1,.cls-2{fill:#6b2aa5;}.cls-1{opacity:0.45;}.cls-2{opacity:0.42;}.cls-3{opacity:0.73;fill:url(#linear-gradient);}.cls-4{opacity:0.68;fill:url(#linear-gradient-2);}</style><linearGradient id="linear-gradient" x1="10.53" y1="162.07" x2="828.1" y2="162.07" gradientUnits="userSpaceOnUse"><stop offset="0" stop-color="#3a2fb2"/><stop offset="0.29" stop-color="#432eb0"/><stop offset="0.75" stop-color="#5b2ca9"/><stop offset="1" stop-color="#6b2aa5"/></linearGradient><linearGradient id="linear-gradient-2" x1="10.53" y1="168.67" x2="828.1" y2="168.67" xlink:href="#linear-gradient"/></defs><title>shorter-wave</title><g id="Layer_2" data-name="Layer 2"><g id="Layer_1-2" data-name="Layer 1"><path class="cls-1" d="M0,0V326.52c66.16,6.47,159.31,5.34,255.54-36.6,46.21-20.14,46.88-29.53,87.71-42.46C448,214.29,548.67,242.74,627.52,265A829.16,829.16,0,0,1,750,310.41V0Z"/><path class="cls-2" d="M0,0V240.14c14.61,1.4,36.19,4,62,8.78,67.38,12.63,95.33,28.13,136.08,39.53,77.63,21.71,145.7,12.86,199.6,5.86,90.31-11.74,97.58-33.16,148.19-32.21,48.06.9,118.51,21.68,204.13,121.52V0Z"/><path class="cls-3" d="M0,0V255.21c120.67-13.56,214.41-6.34,278.18,3,31.05,4.53,71.93,12.45,153.68,28.27,11.71,2.27,84,21,170.6,34.23,19.45,3,41.6,6,69.16,0,37.1-8.06,63.39-28,78.38-41.67V0Z"/><path class="cls-4" d="M0,0V233.69c126.2,4.5,222.46,27.59,291.93,51.12,16.32,5.52,23.24,8.39,38.82,13.53,60.43,19.92,161,50.47,278,34.58,33.71-4.58,83.66-15.09,141.3-42.1V0Z"/></g></g></svg>