<svg xmlns="http://www.w3.org/2000/svg" xmlns:xlink="http://www.w3.org/1999/xlink" viewBox="0 0 750 518.28"><defs><style>.cls-1,.cls-2{fill:#6b2aa5;}.cls-1{opacity:0.45;}.cls-2{opacity:0.42;}.cls-3{opacity:0.73;fill:url(#linear-gradient);}.cls-4{opacity:0.68;fill:url(#linear-gradient-2);}</style><linearGradient id="linear-gradient" x1="10.53" y1="229.4" x2="828.1" y2="229.4" gradientUnits="userSpaceOnUse"><stop offset="0" stop-color="#3a2fb2"/><stop offset="0.29" stop-color="#432eb0"/><stop offset="0.75" stop-color="#5b2ca9"/><stop offset="1" stop-color="#6b2aa5"/></linearGradient><linearGradient id="linear-gradient-2" x1="10.53" y1="236" x2="828.1" y2="236" xlink:href="#linear-gradient"/></defs><title>wave</title><g id="Layer_2" data-name="Layer 2"><g id="Layer_1-2" data-name="Layer 1"><path class="cls-1" d="M0,461.18c66.16,6.47,159.31,5.34,255.54-36.6,46.21-20.14,46.88-29.52,87.71-42.46C448,349,548.67,377.41,627.52,399.69A829.43,829.43,0,0,1,750,445.08V0H0Z"/><path class="cls-2" d="M0,374.8c14.61,1.41,36.19,3.95,62,8.79,67.38,12.63,95.33,28.13,136.08,39.53,77.63,21.71,145.7,12.86,199.6,5.85,90.31-11.73,97.58-33.16,148.19-32.21,48.06.91,118.51,21.68,204.13,121.52V0H0Z"/><path class="cls-3" d="M0,389.88c120.67-13.57,214.41-6.35,278.18,3,31.05,4.54,71.93,12.45,153.68,28.28,11.71,2.26,84,21,170.6,34.22,19.45,3,41.6,6,69.16,0,37.1-8.06,63.39-28,78.38-41.67V0H0Z"/><path class="cls-4" d="M0,368.35c126.2,4.5,222.46,27.6,291.93,51.12,16.32,5.53,23.24,8.4,38.82,13.53,60.43,19.93,161,50.48,278,34.58,33.71-4.58,83.66-15.08,141.3-42.1V0H0Z"/></g></g></svg>