<svg xmlns="http://www.w3.org/2000/svg" xmlns:xlink="http://www.w3.org/1999/xlink" viewBox="0 0 774.21 309.68"><defs><style>.cls-1,.cls-2{fill:#6b2aa5;}.cls-1{opacity:0.45;}.cls-2{opacity:0.42;}.cls-3{opacity:0.73;fill:url(#linear-gradient);}.cls-4{opacity:0.68;fill:url(#linear-gradient-2);}</style><linearGradient id="linear-gradient" x1="10.87" y1="124.14" x2="854.83" y2="124.14" gradientUnits="userSpaceOnUse"><stop offset="0" stop-color="#3a2fb2"/><stop offset="0.29" stop-color="#432eb0"/><stop offset="0.75" stop-color="#5b2ca9"/><stop offset="1" stop-color="#6b2aa5"/></linearGradient><linearGradient id="linear-gradient-2" x1="10.87" y1="130.95" x2="854.83" y2="130.95" xlink:href="#linear-gradient"/></defs><title>wider-top-wave</title><g id="Layer_2" data-name="Layer 2"><g id="Layer_1-2" data-name="Layer 1"><path class="cls-1" d="M0,0V250.74c68.3,6.67,164.45,5.51,263.79-37.79,47.7-20.79,48.39-30.48,90.54-43.83,108.09-34.24,212.05-4.86,293.45,18.14a856.88,856.88,0,0,1,126.43,46.85V0Z"/><path class="cls-2" d="M0,0V161.57c15.08,1.45,37.36,4.07,64,9.06,69.56,13,98.41,29.05,140.48,40.81,80.13,22.41,150.4,13.28,206,6.05,93.22-12.12,100.73-34.24,153-33.25,49.61.93,122.34,22.38,210.72,125.44V0Z"/><path class="cls-3" d="M0,0V177.13c124.57-14,221.33-6.55,287.16,3.07,32,4.68,74.25,12.85,158.65,29.18,12.08,2.34,86.7,21.7,176.1,35.33,20.08,3.07,42.94,6.18,71.39,0,38.3-8.31,65.43-28.86,80.91-43V0Z"/><path class="cls-4" d="M0,0V154.91c130.28,4.64,229.64,28.48,301.35,52.77,16.85,5.7,24,8.66,40.07,14,62.39,20.58,166.19,52.11,286.92,35.7,34.8-4.73,86.37-15.57,145.87-43.46V0Z"/></g></g></svg>