<svg xmlns="http://www.w3.org/2000/svg" xmlns:xlink="http://www.w3.org/1999/xlink" viewBox="0 0 774.21 309.68"><defs><style>.cls-1,.cls-2{fill:#6b2aa5;}.cls-1{opacity:0.45;}.cls-2{opacity:0.42;}.cls-3{opacity:0.73;fill:url(#linear-gradient);}.cls-4{opacity:0.68;fill:url(#linear-gradient-2);}</style><linearGradient id="linear-gradient" x1="110.87" y1="-247.86" x2="954.83" y2="-247.86" gradientTransform="translate(874.21 -62.32) rotate(180)" gradientUnits="userSpaceOnUse"><stop offset="0" stop-color="#3a2fb2"/><stop offset="0.29" stop-color="#432eb0"/><stop offset="0.75" stop-color="#5b2ca9"/><stop offset="1" stop-color="#6b2aa5"/></linearGradient><linearGradient id="linear-gradient-2" x1="110.87" y1="-241.05" x2="954.83" y2="-241.05" xlink:href="#linear-gradient"/></defs><title>wider-wave</title><g id="Layer_2" data-name="Layer 2"><g id="Layer_1-2" data-name="Layer 1"><path class="cls-1" d="M774.21,309.68V58.94c-68.3-6.68-164.45-5.51-263.79,37.79-47.7,20.78-48.39,30.47-90.54,43.82-108.09,34.24-212,4.87-293.45-18.13A856.88,856.88,0,0,1,0,75.57V309.68Z"/><path class="cls-2" d="M774.21,309.68V148.11c-15.08-1.45-37.36-4.07-64-9.07-69.56-13-98.41-29-140.48-40.8-80.13-22.41-150.4-13.28-206-6-93.22,12.12-100.73,34.23-153,33.25C161.11,124.51,88.38,103.06,0,0V309.68Z"/><path class="cls-3" d="M774.21,309.68V132.55c-124.57,14-221.33,6.55-287.16-3.07C455,124.79,412.8,116.63,328.4,100.29,316.32,98,241.7,78.6,152.3,65c-20.08-3.06-42.94-6.18-71.39,0C42.61,73.28,15.48,93.82,0,108V309.68Z"/><path class="cls-4" d="M774.21,309.68V154.77C643.93,150.13,544.57,126.28,472.86,102c-16.85-5.71-24-8.67-40.07-14C370.4,67.46,266.6,35.93,145.87,52.34,111.07,57.07,59.5,67.91,0,95.79V309.68Z"/></g></g></svg>